<svg width="75" height="137" viewBox="0 0 75 137" fill="none" xmlns="http://www.w3.org/2000/svg">
<g clip-path="url(#clip0_44_271)">
<path d="M56.5137 136.952L18.7405 136.995C9.94915 123.367 2.86735 108.348 0.465269 92.1747C-1.42285 79.4421 2.47782 67.0871 11.2097 57.7575C16.9119 51.6636 20.4988 44.5558 17.5341 36.1429C16.2952 32.6214 14.3043 29.8764 12.1024 26.0691H63.0004C59.5272 31.5321 56.5895 35.7061 56.4434 41.5304C56.2973 47.3331 58.9861 52.5318 62.9896 56.7328C77.9918 72.4692 77.1857 90.5406 70.0931 109.944C66.6198 119.452 62.1348 127.924 56.5083 136.952H56.5137ZM55.5183 135.436C63.2222 123.113 69.4384 110.278 72.3491 96.1977C75.6871 81.7773 71.7864 68.0632 61.5992 57.6065C53.4625 49.1289 52.4616 37.5774 60.2251 27.5629L14.6938 27.5198C22.019 36.6876 21.9595 48.4548 14.1095 56.8083C9.02943 62.3792 4.82039 68.3868 2.85653 75.7966C-2.24518 94.4451 9.69487 120.083 19.6819 135.479L55.5237 135.436H55.5183Z" fill="#4F6D3A"/>
<path d="M44.974 7.39899C44.974 11.4868 41.6522 14.798 37.5568 14.798C33.4613 14.798 30.1395 11.4868 30.1395 7.39899C30.1395 3.31121 33.4559 0 37.5568 0C41.6576 0 44.974 3.31121 44.974 7.39899ZM43.3347 7.41517C43.3347 4.2226 40.7433 1.63403 37.5405 1.63403C34.3378 1.63403 31.7463 4.2226 31.7463 7.41517C31.7463 10.6077 34.3378 13.1963 37.5405 13.1963C40.7433 13.1963 43.3347 10.6077 43.3347 7.41517Z" fill="#4F6D3A"/>
</g>
<defs>
<clipPath id="clip0_44_271">
<rect width="75" height="137" fill="white"/>
</clipPath>
</defs>
</svg>
