<svg width="96" height="105" viewBox="0 0 96 105" fill="none" xmlns="http://www.w3.org/2000/svg">
<g clip-path="url(#clip0_44_268)">
<path d="M96 33.4774C90.4704 38.8074 86.7534 44.5721 86.3272 51.9364C85.8416 60.3152 89.6342 67.5774 95.9838 73.5247L89.0515 84.9093C79.287 81.8766 69.8354 85.5534 63.7554 93.5618L63.4803 105.005L0 104.979V0.0214702L63.6314 0L63.7662 11.6959L71.9339 11.8193C73.0776 17.831 77.3826 22.3881 83.7053 22.4954L89.4669 22.592L95.9946 33.4774H96ZM29.9734 33.5203L36.3446 22.6135L42.1548 22.4954C48.499 22.3666 52.9659 17.9276 53.9801 11.8301L62.1532 11.7066L62.1262 1.51902L1.56448 1.50828V103.433H62.1046L62.2125 93.7228C56.4239 85.6768 46.7349 81.882 36.8949 84.9307L29.968 73.5676C35.5462 68.243 39.2686 62.0972 39.63 54.6202C40.0238 46.3971 36.1666 39.2368 29.9788 33.515L29.9734 33.5203ZM88.3988 83.0789L93.9392 73.9004C81.8873 61.5229 81.3316 45.3182 93.9931 33.209L88.7117 24.256L83.1928 24.0037C76.9619 23.7138 72.1173 19.4627 70.7471 13.3169L55.2425 13.333C52.9713 22.2861 45.8987 24.7659 37.3966 24.0788L31.9532 33.3754C44.3289 44.6097 44.3019 62.4729 31.8831 73.7233L37.6447 83.1272C47.4201 80.7548 56.6613 84.0182 62.9624 92.134C69.3714 83.8572 78.7098 80.7709 88.3934 83.0789H88.3988Z" fill="#F5E6D3"/>
</g>
<defs>
<clipPath id="clip0_44_268">
<rect width="96" height="105" fill="white"/>
</clipPath>
</defs>
</svg>
