<svg width="152" height="69" viewBox="0 0 152 69" fill="none" xmlns="http://www.w3.org/2000/svg">
<g clip-path="url(#clip0_44_257)">
<path d="M73.5038 37.7556C66.6959 24.5921 49.822 25.4107 38.2215 32.269C26.432 39.2357 21.9852 50.2739 12.8756 55.6141C9.05559 57.8532 4.3657 60.2008 0 57.8858C9.80122 56.6713 13.6374 54.21 20.0779 47.1023L28.323 38.0104C33.2399 32.5834 39.3616 29.0919 46.4991 26.842C49.5951 9.94305 64.9561 -1.35003 81.5598 0.130057C98.5147 1.63725 111.342 16.1778 111.309 33.4454L111.261 59.2845C120.619 54.2913 142.166 48.024 151.995 54.0256C143.577 53.4455 136.115 52.6377 128.145 54.7575C121.332 56.5738 115.081 59.1002 108.786 62.3314C96.7695 68.4957 78.8204 71.7703 66.7121 65.9476C60.2608 62.8411 56.1112 56.422 56.8568 49.3089C57.7213 40.9868 64.7994 35.999 73.5038 37.7502V37.7556ZM66.2258 63.8386C78.0694 70.8053 98.2229 66.8151 109.748 59.946L109.478 30.8323C109.332 14.9092 95.9266 2.76493 80.7763 1.70773C65.4694 0.639682 51.5023 10.9623 48.2551 26.327C60.1527 24.1638 71.9693 27.6607 76.5997 40.1953C72.0828 39.3278 68.8517 38.0592 64.7832 40.1356C62.449 41.3284 59.661 43.9578 58.8506 47.4276C57.3053 54.0527 60.2229 60.3038 66.2312 63.8386H66.2258Z" fill="#4F6D3A"/>
</g>
<defs>
<clipPath id="clip0_44_257">
<rect width="152" height="69" fill="white"/>
</clipPath>
</defs>
</svg>
