<svg width="14" height="17" viewBox="0 0 14 17" fill="none" xmlns="http://www.w3.org/2000/svg">
<path d="M7.10417 11.6667C7.63194 11.6667 8.14931 11.5556 8.65625 11.3333C9.16319 11.1111 9.60417 10.7778 9.97917 10.3333C10.0764 10.2222 10.0972 10.0972 10.0417 9.95833C9.98611 9.81944 9.88889 9.73611 9.75 9.70833C9.22222 9.625 8.72222 9.42708 8.25 9.11458C7.77778 8.80208 7.39583 8.38889 7.10417 7.875C6.82639 7.38889 6.66319 6.86458 6.61458 6.30208C6.56597 5.73958 6.63889 5.19444 6.83333 4.66667C6.88889 4.52778 6.87153 4.40278 6.78125 4.29167C6.69097 4.18056 6.56944 4.13889 6.41667 4.16667C5.45833 4.34722 4.70139 4.79861 4.14583 5.52083C3.59028 6.24306 3.3125 7.04167 3.3125 7.91667C3.3125 8.95833 3.68403 9.84375 4.42708 10.5729C5.17014 11.3021 6.0625 11.6667 7.10417 11.6667ZM6.66667 16.6667C4.73611 16.1806 3.14236 15.0729 1.88542 13.3438C0.628472 11.6146 0 9.69444 0 7.58333V2.5L6.66667 0L13.3333 2.5V7.58333C13.3333 9.69444 12.7049 11.6146 11.4479 13.3438C10.191 15.0729 8.59722 16.1806 6.66667 16.6667ZM6.66667 14.9167C8.11111 14.4583 9.30556 13.5417 10.25 12.1667C11.1944 10.7917 11.6667 9.26389 11.6667 7.58333V3.64583L6.66667 1.77083L1.66667 3.64583V7.58333C1.66667 9.26389 2.13889 10.7917 3.08333 12.1667C4.02778 13.5417 5.22222 14.4583 6.66667 14.9167Z" fill="#1D1C0D"/>
</svg>
