<svg width="113" height="102" viewBox="0 0 113 102" fill="none" xmlns="http://www.w3.org/2000/svg">
<g clip-path="url(#clip0_44_249)">
<path d="M91.6381 101.592C90.3397 102.279 88.3247 101.893 86.8215 101.893L26.103 101.903H21.5774L0 34.7478L28.0049 34.678C28.4143 27.0469 29.7828 19.8773 33.247 13.1908C35.2351 9.27862 37.7888 5.8924 41.2099 3.23601C45.7301 -0.338042 51.468 -0.998114 56.6832 1.49728C61.559 -0.896152 66.7904 -0.262911 71.2028 2.68863C80.4372 9.34839 84.8173 23.3655 85.0221 34.6726L112.995 34.8444L91.6327 101.587L91.6381 101.592ZM40.5257 34.6297C40.7089 26.0488 42.7831 18.7987 46.4844 11.7204C48.6287 8.14094 51.177 5.21086 54.7598 2.51691C50.4605 0.676216 45.617 1.73341 41.9804 4.63665C33.2955 11.5755 30.1276 23.9666 29.6265 34.6673L40.5257 34.6297ZM83.4704 34.6458C83.1364 27.1542 81.6386 20.2906 78.2929 13.6952C74.6186 6.44514 67.1136 -1.09471 58.3749 2.49007C68.1534 9.54695 72.1457 23.2367 72.5228 34.6565L83.4704 34.6458ZM70.9819 34.7048C70.6856 23.4407 66.1977 9.39132 56.7155 3.397C46.9801 8.65075 42.3413 23.6285 41.9911 34.6404L70.9765 34.7048H70.9819ZM85.9595 100.825L90.4151 100.202L110.883 36.2665H2.17121L22.5795 99.9823L25.5373 100.809L85.9595 100.819V100.825Z" fill="#F5E6D3"/>
</g>
<defs>
<clipPath id="clip0_44_249">
<rect width="113" height="102" fill="white"/>
</clipPath>
</defs>
</svg>
