<svg width="97" height="39" viewBox="0 0 97 39" fill="none" xmlns="http://www.w3.org/2000/svg">
<g clip-path="url(#clip0_36_205)">
<path d="M9.21476 17.0113C8.18476 17.7013 6.68476 17.7913 5.59476 17.1213C6.02476 12.9213 5.91475 8.8913 5.81475 4.6413C5.79475 3.6713 5.25476 2.8813 4.76476 2.0013C5.70476 1.4113 6.85476 1.4213 7.86476 1.3613C9.30476 1.2813 10.0648 1.7113 10.8148 2.8013L16.1248 10.5513L16.2148 6.1013C16.2448 4.4013 16.0248 2.8013 15.7448 1.0513C16.6648 0.431302 17.9948 0.501302 19.1348 0.911302C18.5748 4.1913 18.3648 11.7213 19.0448 14.7213C19.1348 15.1013 19.5548 16.0513 19.2148 16.2713C18.3448 16.8213 17.0048 16.8513 16.1348 16.5313L8.31475 5.5413C8.32475 9.0513 8.11476 13.8613 9.20476 17.0213L9.21476 17.0113Z" fill="#4F6D3A"/>
<path d="M48.9748 14.3313C47.8248 15.1213 46.5748 15.7513 45.1348 15.4813C43.9048 15.2413 42.6548 14.4713 42.0248 13.1613C41.1348 11.3013 41.1248 9.08125 42.0548 7.21125C43.3348 4.66125 46.2248 3.72125 48.9848 4.82125C49.1948 3.39125 49.0948 2.08125 48.5448 0.501255C49.2048 0.0212546 52.2448 -0.538746 52.2548 1.05125L52.3048 11.9013C52.3048 13.0113 52.6548 14.0013 53.0848 15.1013C52.0348 15.7713 49.6948 16.1513 48.9748 14.3313ZM48.9548 6.62125C48.7348 6.04125 47.4848 5.84125 46.8848 5.98125C44.8648 6.45125 44.1148 10.2013 45.4548 12.6013C45.8948 13.3913 46.7848 13.6913 47.6348 13.5013C49.7548 13.0213 48.9948 8.57125 48.9448 6.62125H48.9548Z" fill="#4F6D3A"/>
<path d="M57.4848 10.9113C57.4648 12.1513 58.3948 13.1713 59.2448 13.6613C60.4448 14.3613 61.9448 13.8213 62.9048 13.2713C63.1248 13.1513 63.5548 13.6613 63.4748 13.8313C62.3648 16.2113 59.1648 16.2813 57.1148 15.3713C55.0648 14.4613 54.0148 12.3713 54.0048 10.0413C54.0048 8.04128 54.9048 6.26128 56.5248 5.22128C58.1448 4.18128 60.3548 4.13128 62.1248 5.11128C63.1348 5.67128 63.6448 6.63128 63.5848 7.74128C63.4448 10.3213 59.9948 10.8113 57.4948 10.9113H57.4848ZM60.5748 8.12128C60.9248 7.30128 60.6948 6.39128 60.0448 6.09128C59.4748 5.83128 58.5648 5.94128 58.1248 6.58128C57.5648 7.39128 57.3948 8.38128 57.3948 9.48128C58.6048 9.57128 60.0548 9.37128 60.5848 8.12128H60.5748Z" fill="#4F6D3A"/>
<path d="M71.9048 15.4812C69.8848 16.4912 67.4748 16.3812 65.5848 15.3412C64.7948 14.9012 64.2348 13.8712 64.6648 13.0312C64.9248 12.5212 65.7347 12.8612 66.0747 13.2812C67.0047 14.4412 68.6947 15.1212 69.9647 14.2112C70.7247 13.6712 70.1347 12.5012 69.3847 12.1912C67.5247 11.4212 64.8848 10.3212 64.9048 7.9912C64.9048 7.1012 65.4748 6.1012 66.2748 5.5212C68.0148 4.2612 70.3347 4.3612 72.1847 5.3912C73.1647 5.9412 73.5448 7.5312 72.5248 8.1112C71.6548 8.6012 70.2247 4.9212 68.3247 6.4912C67.5547 7.1212 68.2348 8.2012 68.9848 8.5612C71.0948 9.5712 73.6748 10.6312 73.5448 13.0112C73.4948 13.9112 72.9648 14.9612 71.9048 15.4912V15.4812Z" fill="#4F6D3A"/>
<path d="M80.9747 15.4713C79.9247 16.6513 77.3447 16.4813 76.2247 15.5013C75.6347 14.9813 75.4147 14.0013 75.4347 13.1313L75.5847 6.95126L73.9148 6.68126C73.5648 6.51126 73.6447 5.33126 74.0547 5.27126L75.5547 5.06126L75.9848 2.51126C76.5448 1.52126 78.1847 1.37126 79.0347 2.09126L78.9447 5.46126L81.5047 5.61126C81.7747 5.63126 81.8147 6.49126 81.6347 6.69126C80.9447 7.48126 80.1748 7.02126 78.9148 7.07126C78.7648 9.17126 78.6947 11.1713 78.7647 13.2613C78.7847 14.0913 79.4947 14.5113 80.2447 14.4313C80.5447 14.4013 80.8947 14.4313 81.0647 14.5013C81.2347 14.5713 81.1047 15.2913 80.9647 15.4413L80.9747 15.4713Z" fill="#4F6D3A"/>
<path d="M36.7648 15.5513C35.6048 15.8313 32.7248 16.3513 32.8348 14.6013C33.0048 11.9513 33.2148 9.10129 32.7248 6.44129L32.4548 4.97129C33.3648 4.50129 34.7348 4.33129 35.6648 4.70129C36.0148 4.84129 36.2948 5.75129 36.3548 6.03129C37.4448 4.58129 39.4348 3.55129 40.6148 4.85129C41.2448 5.55129 40.9248 7.21129 40.1548 7.52129C39.3848 7.83129 38.7348 6.68129 37.5248 7.04129C35.5148 7.65129 36.2548 13.8913 36.7848 15.5513H36.7648Z" fill="#4F6D3A"/>
<path d="M31.5748 10.5712C31.5748 13.7312 29.0148 16.2812 25.8548 16.2812C22.6948 16.2812 20.1348 13.7212 20.1348 10.5712C20.1348 7.42121 22.6948 4.86121 25.8548 4.86121C29.0148 4.86121 31.5748 7.42121 31.5748 10.5712ZM27.3648 7.48121C27.0448 6.73121 26.2648 6.28121 25.5548 6.34121C22.9148 6.54121 23.1048 14.7812 25.9948 14.7712C28.3848 14.7612 28.3448 9.77121 27.3748 7.49121L27.3648 7.48121Z" fill="#4F6D3A"/>
<path d="M86.8547 14.7313C88.8247 15.9913 90.2247 14.4713 91.0347 14.5513C91.5747 14.6013 91.1247 16.9713 87.5447 16.9913C83.9647 17.0113 81.8247 14.4813 81.8647 11.1513C81.9047 7.82127 84.2448 5.25127 87.7348 5.43127C89.0248 5.50127 90.4148 5.87127 91.1648 7.06127C92.1648 8.65127 91.3148 10.6913 89.5248 11.2913C88.2148 11.7213 86.9547 11.8613 85.3847 12.0513C85.3847 13.0413 86.1247 14.2713 86.8547 14.7413V14.7313ZM88.5447 9.09127C88.8647 8.28127 88.6348 7.38127 87.9848 7.05127C87.4148 6.75127 86.5347 6.92127 86.0847 7.57127C85.4847 8.43127 85.2647 9.52127 85.3547 10.4713C86.7447 10.5713 88.0547 10.3413 88.5447 9.10127V9.09127Z" fill="#4F6D3A"/>
<path d="M33.0549 25.8134C31.6649 26.7534 31.0949 24.9334 29.6449 25.4234C27.2449 26.2334 28.3749 32.9834 29.1249 34.8634C28.0749 35.7634 26.3649 35.8334 25.0749 35.4134C24.5049 35.2234 24.0149 34.3834 23.9949 33.7734L23.7649 27.5134C23.7049 26.0134 23.3549 24.7134 22.8449 23.2434C23.6049 22.6334 24.6249 22.4434 25.5849 22.3434C26.9449 22.2034 27.8749 23.0034 28.1649 24.3034C28.6849 23.1234 29.4849 22.3734 30.4249 22.0234C31.5649 21.6034 32.6049 22.0234 33.5149 22.5634L35.6249 22.1634L35.8349 19.8034C36.9549 18.8634 38.5349 18.8034 39.7749 19.3334V22.1434L43.0349 22.1734C43.3749 22.1734 43.4649 23.1034 43.3549 23.4234C43.2149 23.8434 42.6049 24.2034 42.1149 24.2234L39.7149 24.3034C39.8749 26.2634 39.0449 31.4834 40.7349 32.3934C41.1249 32.6034 42.0649 32.3734 42.4849 32.4534C43.2949 32.6034 42.8749 33.8134 42.3149 34.1934C40.8549 35.1834 38.8149 35.4234 37.1949 34.4834C36.2449 33.9334 35.5749 32.5934 35.5749 31.4534V24.4434C35.1249 24.2234 34.1549 24.0834 33.8049 24.1834C33.6049 24.9134 33.4149 25.5934 33.0449 25.8534L33.0549 25.8134Z" fill="#4F6D3A"/>
<path d="M75.865 34.0534C74.355 35.4634 72.565 36.0134 70.655 35.4334C69.065 34.9534 67.985 33.5734 67.915 32.0134C67.745 28.1634 72.395 27.3234 75.735 27.5634C75.845 26.7034 75.645 25.4334 74.915 24.8234C73.905 23.9834 72.365 24.4934 71.685 25.5034C71.195 26.2334 70.495 26.5234 69.665 26.2234C68.965 25.9734 68.565 24.9934 69.015 24.1234C70.135 21.9334 74.545 22.1134 76.695 22.4734C78.845 22.8334 80.245 24.4834 80.275 26.6534L80.355 31.9134C80.375 33.1534 80.785 34.2534 81.355 35.4134C80.105 36.4734 78.135 36.7034 76.775 35.5734C76.485 35.3334 76.195 34.6434 75.865 34.0534ZM75.715 29.4334C74.765 29.4534 73.825 29.4934 73.115 29.8034C72.055 30.2534 71.875 31.5034 72.345 32.3134C72.815 33.1234 73.975 33.3034 74.795 32.7234C75.835 31.9934 76.045 30.6234 75.715 29.4334Z" fill="#4F6D3A"/>
<path d="M49.0649 31.9334C51.4749 33.6134 53.2049 31.4134 54.4049 31.8534C54.5649 33.1034 53.6449 34.0934 52.5549 34.4834C50.1449 35.3334 47.4149 35.0734 45.3849 33.4834C43.6349 32.1134 43.1149 29.9434 43.2349 27.8134C43.4449 24.1534 46.3349 21.5534 50.0149 21.7134C51.2049 21.7634 52.4349 21.9134 53.4249 22.5834C54.5049 23.3234 55.0549 24.5634 54.8249 25.8434C54.3049 28.8534 50.1749 28.9134 47.5449 29.2034C47.4749 30.3434 48.3249 31.4234 49.0649 31.9334ZM51.1249 25.8834C51.3349 25.3334 51.2349 24.3334 50.8249 23.9234C50.0849 23.1834 49.0149 23.4334 48.4049 24.1934C47.6749 25.0934 47.4549 26.2334 47.4749 27.4434C48.8449 27.4634 50.5949 27.2934 51.1249 25.8834Z" fill="#4F6D3A"/>
<path d="M64.2849 34.7534C61.1049 35.8034 55.7249 34.8434 55.9949 31.9934C56.0249 31.6934 56.5249 31.1634 56.8049 31.0834C57.0849 31.0034 57.6049 31.2434 57.8549 31.4834C60.1749 33.6534 62.8549 33.0434 62.8549 32.0034C62.8549 29.9034 56.0649 30.2634 56.2849 25.6734C56.3549 24.2534 57.1849 22.9334 58.6549 22.3334C60.6249 21.5334 62.9749 21.5234 64.8949 22.4334C65.9349 22.9234 66.6149 23.9634 66.2249 25.1034C66.1449 25.3434 65.8349 25.7334 65.6349 25.8234C64.5749 26.2934 64.0749 23.7334 61.3549 23.9834C60.9249 24.0234 60.3149 24.4534 60.2049 24.8334C60.0949 25.2134 60.5049 26.0234 60.9349 26.2034L64.5049 27.6834C65.9949 28.3034 66.9549 29.6934 66.9349 31.1534C66.9149 32.6934 65.9649 34.2034 64.2849 34.7634V34.7534Z" fill="#4F6D3A"/>
<path d="M77.0649 21.4434C74.0549 21.3834 72.7849 18.9134 70.9749 20.9034C70.7749 21.1234 70.1349 21.3234 69.8549 21.2834C69.5349 21.2434 69.1149 20.6534 69.0949 20.2634C69.0649 19.4034 69.6049 18.6134 70.3049 18.2134C71.9249 17.2834 73.7849 17.4234 75.3649 18.3234C77.8249 19.7134 78.3849 17.1734 79.5849 17.9634C79.8549 18.1334 80.1049 18.8134 80.0449 19.1734C79.8049 20.5734 78.6149 21.4634 77.0549 21.4334L77.0649 21.4434Z" fill="#4F6D3A"/>
<path d="M96.3549 30.2634C96.3549 34.1634 93.185 37.3234 89.285 37.3234C85.385 37.3234 82.215 34.1634 82.215 30.2634C82.215 26.3634 85.385 23.2034 89.285 23.2034C93.185 23.2034 96.3549 26.3634 96.3549 30.2634ZM91.195 26.6834C90.825 25.8134 89.955 25.2934 89.145 25.3134C88.395 25.3334 87.615 25.8234 87.305 26.6534C86.175 29.6934 86.5349 35.4534 89.5949 35.2334C92.2049 35.0434 92.385 29.4634 91.195 26.6734V26.6834Z" fill="#4F6D3A"/>
<path d="M10.7149 29.7834C9.91495 32.1634 9.07495 35.3134 10.0349 37.8834C8.95495 38.6534 7.31495 38.7334 6.00495 38.2534C5.13495 37.9434 4.67495 37.0534 4.86495 36.1434C5.36495 33.8434 6.13495 31.8034 6.98495 29.5134C6.01495 29.4634 4.94495 29.6034 4.09495 30.0834C3.24495 30.5634 3.27495 31.4634 3.00495 32.3934C2.87495 32.8434 1.71495 32.8134 1.24495 32.6034C0.664948 32.3534 0.154948 31.6834 0.0449481 30.9534C-0.575052 26.6434 5.37495 26.2934 8.27495 26.3634L11.2549 21.0634C12.3249 19.1734 14.2349 18.4834 16.3449 18.8234C17.3849 18.9934 18.0349 19.4234 18.2649 20.5234C19.1249 24.7334 20.3249 31.0234 22.6349 34.4834C22.8149 34.7534 23.0249 35.0834 23.0649 35.2834C23.2549 36.3034 20.4649 36.9334 18.6849 36.5134C16.5649 36.0234 16.0349 32.2834 15.4849 30.4234C13.9249 30.1034 12.4449 29.9034 10.7049 29.7634L10.7149 29.7834ZM15.1649 27.8234C14.8049 25.4634 14.5349 23.9334 13.9549 21.9434C12.8649 23.7934 12.2449 25.2634 11.4749 27.1734L15.1649 27.8234Z" fill="#4F6D3A"/>
</g>
<defs>
<clipPath id="clip0_36_205">
<rect width="96.3549" height="38.5525" fill="white"/>
</clipPath>
</defs>
</svg>
