<svg width="97" height="40" viewBox="0 0 97 40" fill="none" xmlns="http://www.w3.org/2000/svg">
<path d="M10.1049 17.0113C9.07495 17.7013 7.57495 17.7913 6.48495 17.1213C6.91495 12.9213 6.80495 8.89125 6.70495 4.64125C6.68495 3.67125 6.14495 2.88125 5.65495 2.00125C6.59495 1.41125 7.74495 1.42125 8.75495 1.36125C10.1949 1.28125 10.9549 1.71125 11.7049 2.80125L17.0149 10.5513L17.1049 6.10125C17.1349 4.40125 16.9149 2.80125 16.6349 1.05125C17.5549 0.431255 18.885 0.501255 20.025 0.911255C19.465 4.19125 19.2549 11.7213 19.9349 14.7213C20.0249 15.1013 20.4449 16.0513 20.1049 16.2713C19.2349 16.8213 17.895 16.8513 17.025 16.5313L9.20495 5.54125C9.21495 9.05125 9.00495 13.8613 10.0949 17.0213L10.1049 17.0113Z" fill="#D96C2B"/>
<path d="M49.8649 14.3313C48.7149 15.1213 47.4649 15.7513 46.0249 15.4813C44.7949 15.2413 43.5449 14.4713 42.9149 13.1613C42.0249 11.3013 42.0149 9.08125 42.9449 7.21125C44.2249 4.66125 47.1149 3.72125 49.8749 4.82125C50.0849 3.39125 49.9849 2.08125 49.4349 0.501255C50.0949 0.0212546 53.1349 -0.538746 53.1449 1.05125L53.1949 11.9013C53.1949 13.0113 53.5449 14.0013 53.9749 15.1013C52.9249 15.7713 50.5849 16.1513 49.8649 14.3313ZM49.8449 6.62125C49.6249 6.04125 48.3749 5.84125 47.7749 5.98125C45.7549 6.45125 45.0049 10.2013 46.3449 12.6013C46.7849 13.3913 47.6749 13.6913 48.5249 13.5013C50.6449 13.0213 49.8849 8.57125 49.8349 6.62125H49.8449Z" fill="#D96C2B"/>
<path d="M58.3749 10.9113C58.3549 12.1513 59.2849 13.1713 60.1349 13.6613C61.3349 14.3613 62.8349 13.8213 63.7949 13.2713C64.0149 13.1513 64.445 13.6613 64.365 13.8313C63.255 16.2113 60.0549 16.2813 58.0049 15.3713C55.9549 14.4613 54.9049 12.3713 54.8949 10.0413C54.8949 8.04125 55.7949 6.26125 57.4149 5.22125C59.0349 4.18125 61.2449 4.13125 63.0149 5.11125C64.0249 5.67125 64.535 6.63125 64.475 7.74125C64.335 10.3213 60.8849 10.8113 58.3849 10.9113H58.3749ZM61.4649 8.12125C61.8149 7.30125 61.5849 6.39125 60.9349 6.09125C60.3649 5.83125 59.4549 5.94125 59.0149 6.58125C58.4549 7.39125 58.2849 8.38125 58.2849 9.48125C59.4949 9.57125 60.9449 9.37125 61.4749 8.12125H61.4649Z" fill="#D96C2B"/>
<path d="M72.795 15.4813C70.775 16.4913 68.365 16.3813 66.475 15.3413C65.685 14.9013 65.125 13.8713 65.555 13.0313C65.815 12.5213 66.625 12.8613 66.965 13.2813C67.895 14.4413 69.5849 15.1213 70.8549 14.2113C71.6149 13.6713 71.0249 12.5013 70.2749 12.1913C68.4149 11.4213 65.775 10.3213 65.795 7.99125C65.795 7.10125 66.365 6.10125 67.165 5.52125C68.905 4.26125 71.225 4.36125 73.075 5.39125C74.055 5.94125 74.435 7.53125 73.415 8.11125C72.545 8.60125 71.115 4.92125 69.215 6.49125C68.445 7.12125 69.125 8.20125 69.875 8.56125C71.985 9.57125 74.565 10.6313 74.435 13.0113C74.385 13.9113 73.855 14.9613 72.795 15.4913V15.4813Z" fill="#D96C2B"/>
<path d="M81.865 15.4713C80.815 16.6513 78.235 16.4813 77.115 15.5013C76.525 14.9813 76.305 14.0013 76.325 13.1313L76.475 6.95125L74.805 6.68125C74.455 6.51125 74.535 5.33125 74.945 5.27125L76.445 5.06125L76.875 2.51125C77.435 1.52125 79.0749 1.37125 79.9249 2.09125L79.835 5.46125L82.395 5.61125C82.665 5.63125 82.7049 6.49125 82.5249 6.69125C81.8349 7.48125 81.065 7.02125 79.805 7.07125C79.655 9.17125 79.585 11.1713 79.655 13.2613C79.675 14.0913 80.3849 14.5113 81.1349 14.4313C81.4349 14.4013 81.7849 14.4313 81.9549 14.5013C82.1249 14.5713 81.9949 15.2913 81.8549 15.4413L81.865 15.4713Z" fill="#D96C2B"/>
<path d="M37.6549 15.5513C36.4949 15.8313 33.6149 16.3513 33.7249 14.6013C33.8949 11.9513 34.1049 9.10125 33.6149 6.44125L33.3449 4.97125C34.2549 4.50125 35.6249 4.33125 36.5549 4.70125C36.9049 4.84125 37.1849 5.75125 37.2449 6.03125C38.3349 4.58125 40.3249 3.55125 41.5049 4.85125C42.1349 5.55125 41.8149 7.21126 41.0449 7.52126C40.2749 7.83126 39.6249 6.68125 38.4149 7.04125C36.4049 7.65126 37.1449 13.8913 37.6749 15.5513H37.6549Z" fill="#D96C2B"/>
<path d="M32.4649 10.5713C32.4649 13.7313 29.9049 16.2813 26.7449 16.2813C23.5849 16.2813 21.0249 13.7213 21.0249 10.5713C21.0249 7.42125 23.5849 4.86125 26.7449 4.86125C29.9049 4.86125 32.4649 7.42125 32.4649 10.5713ZM28.2549 7.48125C27.9349 6.73125 27.1549 6.28125 26.4449 6.34125C23.8049 6.54125 23.9949 14.7813 26.8849 14.7713C29.2749 14.7613 29.2349 9.77125 28.2649 7.49125L28.2549 7.48125Z" fill="#D96C2B"/>
<path d="M87.7449 14.7313C89.7149 15.9913 91.1149 14.4713 91.9249 14.5513C92.4649 14.6013 92.015 16.9713 88.435 16.9913C84.855 17.0113 82.715 14.4813 82.755 11.1513C82.795 7.79125 85.135 5.25125 88.625 5.43125C89.915 5.50125 91.305 5.87125 92.055 7.06125C93.055 8.65126 92.205 10.6913 90.415 11.2913C89.105 11.7213 87.8449 11.8613 86.2749 12.0513C86.2749 13.0413 87.0149 14.2713 87.7449 14.7413V14.7313ZM89.435 9.09126C89.755 8.28126 89.525 7.38125 88.875 7.05125C88.305 6.75125 87.425 6.92125 86.975 7.57125C86.375 8.43125 86.1549 9.52125 86.2449 10.4713C87.6349 10.5713 88.945 10.3413 89.435 9.10125V9.09126Z" fill="#D96C2B"/>
<path d="M33.0549 26.5113C31.6649 27.4513 31.0949 25.6313 29.6449 26.1213C27.2449 26.9313 28.3749 33.6813 29.1249 35.5613C28.0749 36.4613 26.3649 36.5313 25.0749 36.1113C24.5049 35.9213 24.0149 35.0813 23.9949 34.4713L23.7649 28.2113C23.7049 26.7113 23.3549 25.4113 22.8449 23.9413C23.6049 23.3313 24.6249 23.1413 25.5849 23.0413C26.9449 22.9013 27.8749 23.7013 28.1649 25.0013C28.6849 23.8213 29.4849 23.0713 30.4249 22.7213C31.5649 22.3013 32.6049 22.7213 33.5149 23.2613L35.6249 22.8613L35.8349 20.5013C36.9549 19.5613 38.5349 19.5013 39.7749 20.0313V22.8413L43.0349 22.8713C43.3749 22.8713 43.4649 23.8013 43.3549 24.1213C43.2149 24.5413 42.6049 24.9013 42.1149 24.9213L39.7149 25.0013C39.8749 26.9613 39.0449 32.1813 40.7349 33.0913C41.1249 33.3013 42.0649 33.0713 42.4849 33.1513C43.2949 33.3013 42.8749 34.5113 42.3149 34.8913C40.8549 35.8813 38.8149 36.1213 37.1949 35.1813C36.2449 34.6313 35.5749 33.2913 35.5749 32.1513V25.1413C35.1249 24.9213 34.1549 24.7813 33.8049 24.8813C33.6049 25.6113 33.4149 26.2913 33.0449 26.5513L33.0549 26.5113Z" fill="#D96C2B"/>
<path d="M75.8649 34.7513C74.3549 36.1613 72.5649 36.7113 70.6549 36.1313C69.0649 35.6513 67.9849 34.2713 67.9149 32.7113C67.7449 28.8613 72.3949 28.0213 75.7349 28.2613C75.8449 27.4013 75.6449 26.1313 74.9149 25.5213C73.9049 24.6813 72.3649 25.1913 71.6849 26.2013C71.1949 26.9313 70.4949 27.2213 69.6649 26.9213C68.9649 26.6713 68.5649 25.6913 69.0149 24.8213C70.1349 22.6313 74.5449 22.8113 76.6949 23.1713C78.8449 23.5313 80.2449 25.1813 80.2749 27.3513L80.3549 32.6113C80.3749 33.8513 80.7849 34.9513 81.3549 36.1113C80.1049 37.1713 78.1349 37.4013 76.7749 36.2713C76.4849 36.0313 76.1949 35.3413 75.8649 34.7513ZM75.7149 30.1313C74.7649 30.1513 73.8249 30.1913 73.1149 30.5013C72.0549 30.9513 71.8749 32.2013 72.3449 33.0113C72.8149 33.8213 73.9749 34.0013 74.7949 33.4213C75.8349 32.6913 76.0449 31.3213 75.7149 30.1313Z" fill="#D96C2B"/>
<path d="M49.0649 32.6313C51.4749 34.3113 53.2049 32.1113 54.4049 32.5513C54.5649 33.8013 53.6449 34.7913 52.5549 35.1813C50.1449 36.0313 47.4149 35.7713 45.3849 34.1813C43.6349 32.8113 43.1149 30.6413 43.2349 28.5113C43.4449 24.8513 46.3349 22.2513 50.0149 22.4113C51.2049 22.4613 52.4349 22.6113 53.4249 23.2813C54.5049 24.0213 55.0549 25.2613 54.8249 26.5413C54.3049 29.5513 50.1749 29.6113 47.5449 29.9013C47.4749 31.0413 48.3249 32.1213 49.0649 32.6313ZM51.1249 26.5813C51.3349 26.0313 51.2349 25.0313 50.8249 24.6213C50.0849 23.8813 49.0149 24.1313 48.4049 24.8913C47.6749 25.7913 47.4549 26.9313 47.4749 28.1413C48.8449 28.1613 50.5949 27.9913 51.1249 26.5813Z" fill="#D96C2B"/>
<path d="M64.2849 35.4513C61.1049 36.5013 55.7249 35.5413 55.9949 32.6913C56.0249 32.3913 56.5249 31.8613 56.8049 31.7813C57.0849 31.7013 57.6049 31.9413 57.8549 32.1813C60.1749 34.3513 62.8549 33.7413 62.8549 32.7013C62.8549 30.6013 56.0649 30.9613 56.2849 26.3713C56.3549 24.9513 57.1849 23.6313 58.6549 23.0313C60.6249 22.2313 62.9749 22.2213 64.8949 23.1313C65.9349 23.6213 66.6149 24.6613 66.2249 25.8013C66.1449 26.0413 65.8349 26.4313 65.6349 26.5213C64.5749 26.9913 64.0749 24.4313 61.3549 24.6813C60.9249 24.7213 60.3149 25.1513 60.2049 25.5313C60.0949 25.9113 60.5049 26.7213 60.9349 26.9013L64.5049 28.3813C65.9949 29.0013 66.9549 30.3913 66.9349 31.8513C66.9149 33.3913 65.9649 34.9013 64.2849 35.4613V35.4513Z" fill="#D96C2B"/>
<path d="M77.0649 22.1413C74.0549 22.0813 72.785 19.6113 70.975 21.6013C70.775 21.8213 70.1349 22.0213 69.8549 21.9813C69.5349 21.9413 69.1149 21.3513 69.0949 20.9613C69.0649 20.1013 69.605 19.3113 70.305 18.9113C71.925 17.9813 73.785 18.1213 75.365 19.0213C77.825 20.4113 78.385 17.8713 79.585 18.6613C79.855 18.8313 80.105 19.5113 80.045 19.8713C79.805 21.2713 78.615 22.1613 77.055 22.1313L77.0649 22.1413Z" fill="#D96C2B"/>
<path d="M96.3549 30.9613C96.3549 34.8613 93.185 38.0213 89.285 38.0213C85.385 38.0213 82.215 34.8613 82.215 30.9613C82.215 27.0613 85.385 23.9013 89.285 23.9013C93.185 23.9013 96.3549 27.0613 96.3549 30.9613ZM91.195 27.3813C90.825 26.5113 89.955 25.9913 89.145 26.0113C88.395 26.0313 87.615 26.5213 87.305 27.3513C86.175 30.3913 86.5349 36.1513 89.5949 35.9313C92.2049 35.7413 92.385 30.1613 91.195 27.3713V27.3813Z" fill="#D96C2B"/>
<path d="M10.7149 30.4813C9.91495 32.8613 9.07495 36.0113 10.0349 38.5813C8.95495 39.3513 7.31495 39.4313 6.00495 38.9513C5.13495 38.6413 4.67495 37.7513 4.86495 36.8413C5.36495 34.5413 6.13495 32.5013 6.98495 30.2113C6.01495 30.1613 4.94495 30.3013 4.09495 30.7813C3.24495 31.2613 3.27495 32.1613 3.00495 33.0913C2.87495 33.5413 1.71495 33.5113 1.24495 33.3013C0.664948 33.0513 0.154948 32.3813 0.0449481 31.6513C-0.575052 27.3413 5.37495 26.9913 8.27495 27.0613L11.2549 21.7613C12.3249 19.8713 14.2349 19.1813 16.3449 19.5213C17.3849 19.6913 18.0349 20.1213 18.2649 21.2213C19.1249 25.4313 20.3249 31.7213 22.6349 35.1813C22.8149 35.4513 23.0249 35.7813 23.0649 35.9813C23.2549 37.0013 20.4649 37.6313 18.6849 37.2113C16.5649 36.7213 16.0349 32.9813 15.4849 31.1213C13.9249 30.8013 12.4449 30.6013 10.7049 30.4613L10.7149 30.4813ZM15.1649 28.5213C14.8049 26.1613 14.5349 24.6313 13.9549 22.6413C12.8649 24.4913 12.2449 25.9613 11.4749 27.8713L15.1649 28.5213Z" fill="#D96C2B"/>
</svg>
