<svg width="45" height="45" viewBox="0 0 45 45" fill="none" xmlns="http://www.w3.org/2000/svg">
<g clip-path="url(#clip0_36_145)">
<path d="M22.5 45C34.9264 45 45 34.9264 45 22.5C45 10.0736 34.9264 0 22.5 0C10.0736 0 0 10.0736 0 22.5C0 34.9264 10.0736 45 22.5 45Z" fill="#D97A2B"/>
<path d="M14.25 24.88C13.36 25.48 12.07 25.56 11.12 24.97C11.49 21.34 11.39 17.86 11.31 14.2C11.29 13.37 10.83 12.68 10.41 11.92C11.22 11.41 12.21 11.42 13.09 11.37C14.33 11.3 14.99 11.67 15.64 12.61L20.23 19.3L20.31 15.46C20.34 13.99 20.15 12.61 19.91 11.1C20.71 10.57 21.85 10.63 22.84 10.98C22.36 13.81 22.17 20.31 22.77 22.91C22.84 23.23 23.21 24.06 22.92 24.25C22.17 24.72 21.01 24.75 20.26 24.47L13.5 14.98C13.5 18.01 13.33 22.17 14.27 24.89L14.25 24.88Z" fill="white"/>
<path d="M23.91 26.73C23.22 28.78 22.5 31.51 23.32 33.73C22.38 34.39 20.97 34.46 19.84 34.05C19.09 33.78 18.69 33.01 18.86 32.23C19.29 30.25 19.96 28.48 20.69 26.5C19.85 26.45 18.93 26.57 18.2 26.99C17.47 27.41 17.49 28.18 17.25 28.99C17.13 29.38 16.14 29.35 15.73 29.17C15.23 28.95 14.79 28.37 14.7 27.75C14.16 24.03 19.3 23.72 21.8 23.79L24.38 19.22C25.3 17.59 26.95 16.99 28.77 17.28C29.66 17.42 30.23 17.79 30.43 18.75C31.17 22.39 32.21 27.81 34.21 30.8C34.36 31.03 34.54 31.32 34.58 31.49C34.75 32.37 32.33 32.91 30.8 32.55C28.97 32.12 28.52 28.89 28.04 27.29C26.7 27.02 25.42 26.84 23.91 26.72V26.73ZM27.76 25.04C27.45 23 27.22 21.68 26.71 19.96C25.77 21.56 25.24 22.82 24.57 24.48L27.75 25.04H27.76Z" fill="white"/>
</g>
<defs>
<clipPath id="clip0_36_145">
<rect width="45" height="45" fill="white"/>
</clipPath>
</defs>
</svg>
