<svg width="45" height="45" viewBox="0 0 45 45" fill="none" xmlns="http://www.w3.org/2000/svg">
<g clip-path="url(#clip0_36_141)">
<path d="M22.5 45C34.9264 45 45 34.9264 45 22.5C45 10.0736 34.9264 0 22.5 0C10.0736 0 0 10.0736 0 22.5C0 34.9264 10.0736 45 22.5 45Z" fill="#D97A2B"/>
<path d="M6.3 25.68C6.76 26.77 7.66 27.53 8.68 28.12C11.22 29.6 14.2 30.06 17.13 29.51C19.4 29.08 21.48 28.3 23.47 27.18L26.08 25.72C24.12 25.98 22.26 26.1 20.29 25.99C20.02 25.97 20 25.59 20.02 25.38C20.02 25.33 20.05 25.28 20.09 25.25C20.75 24.74 21.35 24.16 21.87 23.54L21.71 23.07C24.56 23.07 27.28 22.73 29.98 21.87C29.69 20.27 29.43 18.72 29 17.2C28.76 16.36 28.14 15.74 27.33 15.52C26.38 15.41 25.51 15.67 24.66 16.1C23.15 16.86 21.05 17.95 19.38 17.23C19.27 17.18 19.1 17.03 19.12 16.83C19.15 16.58 19.4 16.5 19.52 16.52C20.64 16.71 21.92 16.52 22.88 15.81L19.84 15.26C18.98 15.1 18.04 15.3 17.42 15.88C16.91 16.36 16.68 17.02 16.42 17.71L15.62 17.06C15.98 15.49 17.25 14.35 18.91 14.26C21.57 14.11 22.69 15.45 25.93 14.61C27.09 14.31 28.34 14.57 29.13 15.45C29.77 16.16 30.09 17.05 30.27 17.97L31.28 23.09L32.65 22.62C34.31 22.05 36.07 21.75 37.78 22.1C38.56 22.26 39.24 22.71 39.58 23.28C40.67 25.13 38.9 27.23 37 28.16C33.82 29.73 29.32 29.4 25.82 29.06C21.65 30.06 17.73 31.07 13.42 30.66C10.48 30.39 6.19 28.73 5.27 25.68C4.9 24.47 5.33 23.27 6.44 22.64C7.55 22.01 8.82 21.98 10.03 22.29L9.17 23.14C8.51 23.09 7.9 23.11 7.29 23.32C6.32 23.65 5.91 24.66 6.33 25.66L6.3 25.68ZM33.66 26.57C34.04 26.6 34.39 26.87 34.39 27.24C34.39 27.53 34.12 27.8 33.7 28.07C35.26 27.94 38.3 26.95 38.79 24.85C38.99 24 38.5 23.28 37.65 23.1C34.49 22.42 30.79 24.31 28.03 25.8L22.4 28.83C26.5 28.12 29.35 26.22 33.66 26.58V26.57Z" fill="white"/>
<path d="M20.95 23.24C20.37 22.63 19.78 22.18 19.03 21.76C19.3 20.99 19.49 20.2 19.35 19.31C18.47 19.24 17.67 19.39 16.89 19.61C16.5 18.86 16.03 18.26 15.41 17.71C14.71 18.27 14.26 18.9 13.9 19.62C13.09 19.38 12.35 19.26 11.5 19.27C11.38 20.14 11.5 20.9 11.79 21.75C11.03 22.17 10.31 22.57 9.85 23.3C10.48 23.94 11.1 24.38 11.8 24.79C11.51 25.54 11.38 26.28 11.48 27.15C12.33 27.22 13.08 27.14 13.89 26.89C14.29 27.59 14.71 28.25 15.42 28.81C16.1 28.15 16.54 27.58 16.92 26.85C17.69 27.13 18.52 27.24 19.39 27.16C19.44 26.27 19.3 25.55 19.05 24.79C19.77 24.37 20.37 23.9 20.96 23.23L20.95 23.24ZM15.38 18.98C15.68 19.22 16.11 19.69 16.02 20.04C15.91 20.48 15.6 20.91 15.38 21.3C15.18 20.91 14.95 20.57 14.81 20.19C14.66 19.78 15.11 19.28 15.38 18.99V18.98ZM13.56 20.55C13.79 20.94 13.88 21.46 14 21.89C13.58 21.76 13.18 21.68 12.81 21.51C12.42 21.33 12.38 20.65 12.36 20.26C12.74 20.22 13.38 20.25 13.56 20.55ZM11.12 23.3C11.36 23 11.83 22.57 12.18 22.66C12.62 22.77 13.05 23.08 13.44 23.3C13.05 23.5 12.71 23.73 12.33 23.87C11.92 24.02 11.42 23.57 11.13 23.3H11.12ZM13.64 25.87C13.46 26.26 12.78 26.3 12.39 26.32C12.35 25.94 12.38 25.3 12.68 25.12C13.07 24.89 13.59 24.8 14.02 24.68C13.89 25.1 13.81 25.5 13.64 25.87ZM15.43 27.56C15.13 27.32 14.7 26.85 14.79 26.5C14.9 26.06 15.21 25.63 15.43 25.24C15.63 25.63 15.86 25.97 16 26.35C16.15 26.76 15.7 27.26 15.43 27.55V27.56ZM15.4 24.06C14.96 24.06 14.61 23.7 14.61 23.27C14.61 22.84 14.97 22.48 15.4 22.48C15.83 22.48 16.19 22.84 16.19 23.27C16.19 23.7 15.83 24.06 15.4 24.06ZM17.16 20.66C17.34 20.27 18.02 20.23 18.41 20.21C18.45 20.59 18.42 21.23 18.12 21.41C17.73 21.64 17.21 21.73 16.78 21.85C16.91 21.43 16.99 21.03 17.16 20.66ZM17.25 25.99C17.02 25.6 16.93 25.08 16.81 24.65C17.23 24.78 17.63 24.86 18 25.03C18.39 25.21 18.43 25.89 18.45 26.28C18.07 26.32 17.43 26.29 17.25 25.99ZM18.63 23.88C18.19 23.77 17.76 23.46 17.37 23.24C17.76 23.04 18.1 22.81 18.48 22.67C18.89 22.52 19.39 22.97 19.68 23.24C19.44 23.54 18.97 23.97 18.62 23.88H18.63Z" fill="white"/>
</g>
<defs>
<clipPath id="clip0_36_141">
<rect width="45" height="45" fill="white"/>
</clipPath>
</defs>
</svg>
